<?xml version="1.0" standalone="no"?>
<!DOCTYPE svg PUBLIC "-//W3C//DTD SVG 20010904//EN"
 "http://www.w3.org/TR/2001/REC-SVG-20010904/DTD/svg10.dtd">
<svg version="1.0" xmlns="http://www.w3.org/2000/svg"
 width="1280.000000pt" height="603.000000pt" viewBox="0 0 1280.000000 603.000000"
 preserveAspectRatio="none">
<metadata>
Created by potrace 1.15, written by Peter Selinger 2001-2017
</metadata>
<g transform="translate(0.000000,603.000000) scale(0.100000,-0.100000)"
fill="#ffffff" stroke="none">
<path d="M1846 6015 c4 -11 0 -15 -16 -15 -12 0 -34 -9 -48 -21 -20 -15 -35
-19 -62 -14 -34 6 -187 17 -244 17 -15 1 -31 -4 -35 -11 -4 -6 -41 -13 -82
-15 -41 -3 -100 -10 -132 -16 -31 -6 -62 -8 -67 -5 -5 3 -19 1 -30 -5 -16 -9
-35 -7 -83 8 -74 24 -145 34 -153 21 -3 -5 -12 -5 -22 0 -25 13 -91 6 -142
-16 -25 -10 -65 -25 -89 -33 -39 -13 -44 -12 -53 3 -5 9 -18 17 -28 17 -11 0
-20 5 -20 10 0 6 -17 8 -42 4 -58 -8 -116 -6 -135 5 -11 5 -31 2 -60 -11 -24
-11 -54 -18 -66 -16 -12 1 -37 -7 -54 -20 -17 -12 -36 -22 -41 -22 -5 0 -12
-15 -15 -32 -2 -18 -10 -58 -16 -88 -6 -31 -8 -71 -5 -90 13 -78 16 -130 6
-130 -15 0 -23 -28 -28 -93 -3 -43 -1 -59 10 -63 10 -4 12 -14 5 -44 -5 -21
-13 -88 -18 -149 -6 -62 -16 -120 -25 -133 -14 -23 -20 -172 -8 -192 3 -6 6
-80 7 -165 l2 -156 34 -3 c19 -2 67 1 106 6 40 4 92 5 115 1 l43 -6 -40 -2
c-22 -1 -71 -8 -110 -16 -38 -8 -84 -15 -101 -15 l-31 0 -6 -81 c-6 -72 -4
-87 18 -140 28 -66 31 -103 10 -139 -8 -14 -14 -37 -15 -52 0 -15 -4 -37 -9
-50 -31 -83 -33 -98 -16 -136 26 -60 31 -67 53 -77 16 -7 22 -19 22 -42 0 -18
-4 -33 -9 -33 -5 0 -11 -9 -14 -21 -3 -12 -10 -18 -17 -14 -6 4 -18 1 -26 -6
-13 -10 -13 -15 1 -35 19 -29 21 -161 4 -249 -19 -101 -12 -191 20 -260 27
-59 30 -61 104 -92 59 -26 91 -33 139 -33 56 0 60 -1 43 -14 -11 -7 -45 -21
-75 -31 -86 -28 -109 -43 -140 -92 -49 -76 -73 -202 -75 -393 -1 -91 -6 -183
-10 -205 -9 -49 -32 -88 -46 -79 -8 4 -8 1 -1 -13 25 -47 53 -144 47 -164 -4
-11 -1 -50 6 -85 10 -53 11 -69 0 -86 -7 -11 -12 -43 -11 -71 1 -29 1 -54 0
-57 -13 -42 15 -151 58 -219 13 -22 13 -26 -2 -36 -14 -11 -12 -13 15 -19 17
-3 64 -6 103 -6 119 0 101 -15 -22 -18 -64 -2 -118 -5 -121 -7 -4 -5 -10 -43
-15 -111 -2 -22 -6 -49 -9 -60 -6 -19 -26 -303 -32 -437 -1 -37 2 -70 7 -73 5
-3 4 -12 -3 -20 -8 -10 -10 -41 -4 -107 8 -102 8 -127 -1 -238 -7 -96 18 -161
72 -184 19 -8 37 -21 40 -30 3 -8 12 -15 18 -15 7 0 38 -18 70 -40 31 -22 63
-40 70 -40 7 0 27 -7 45 -16 19 -9 39 -13 49 -8 30 13 56 12 68 -4 7 -10 22
-13 47 -10 20 2 37 0 37 -4 0 -14 104 -8 123 6 14 11 27 12 55 4 49 -14 141
-2 167 21 17 16 34 19 115 17 60 -2 111 -9 139 -20 32 -12 47 -14 57 -5 10 8
22 8 46 0 18 -6 35 -11 38 -10 3 0 17 -4 32 -10 17 -6 30 -7 33 -1 3 6 16 5
31 0 14 -6 29 -8 33 -6 4 3 43 6 87 7 50 2 92 9 114 20 30 14 45 15 100 7 36
-6 81 -10 100 -10 44 1 57 1 205 -2 66 -1 140 -8 165 -15 25 -7 52 -12 60 -12
49 1 121 10 155 20 50 14 102 14 110 1 4 -7 12 -7 25 0 10 5 31 10 47 10 15 1
39 7 52 14 15 8 35 11 55 6 57 -13 140 3 177 34 44 37 139 196 139 234 0 21
17 13 24 -10 3 -13 6 -44 6 -70 0 -60 34 -152 65 -176 19 -15 37 -18 89 -15
35 1 76 -1 89 -6 15 -6 40 -6 66 0 34 8 48 6 82 -11 36 -19 108 -24 123 -9 3
2 50 4 105 3 86 -1 104 -5 127 -23 23 -18 39 -22 89 -20 33 2 76 9 95 17 64
27 75 30 90 31 82 2 116 5 120 11 3 4 14 10 26 14 16 5 23 0 33 -21 9 -20 14
-24 21 -13 6 9 21 11 52 7 28 -4 49 -2 56 5 15 15 157 11 182 -5 15 -9 26 -8
53 5 22 10 39 13 49 7 10 -6 27 -5 45 2 53 21 145 28 150 12 5 -13 90 0 105
15 7 7 23 12 36 12 13 0 32 5 44 11 16 9 24 6 44 -12 17 -16 27 -20 35 -12 9
9 45 2 109 -24 8 -3 35 -7 59 -9 23 -2 49 -8 56 -14 7 -6 20 -8 29 -4 9 3 29
1 45 -6 24 -9 34 -9 59 4 17 9 42 16 56 16 14 0 28 5 31 11 4 6 13 8 20 5 7
-2 17 0 22 5 19 19 108 12 153 -11 38 -19 51 -21 109 -13 l66 8 37 70 c40 76
62 137 73 200 7 39 8 38 27 -50 11 -50 22 -100 24 -112 8 -42 47 -74 109 -89
116 -29 149 -34 158 -25 6 6 20 5 36 -4 40 -20 139 -20 185 -1 57 26 107 28
131 6 27 -25 96 -33 124 -14 11 8 21 13 21 10 0 -3 18 1 39 9 38 13 91 9 122
-11 8 -4 50 -10 94 -11 95 -4 111 -6 150 -22 20 -8 31 -9 33 -2 4 13 42 14 74
2 19 -7 29 -3 58 25 34 33 35 34 100 28 36 -3 87 -15 114 -26 52 -21 137 -21
144 0 2 7 22 9 52 5 27 -3 57 -2 67 2 35 16 127 15 151 -1 16 -10 36 -14 60
-10 107 17 132 18 145 7 20 -16 97 -17 107 -1 5 9 43 14 126 17 72 2 121 8
125 15 9 14 167 22 183 9 6 -5 44 -4 88 1 87 12 88 12 109 128 7 36 20 82 29
103 l18 39 -2 -74 c-1 -57 4 -84 22 -123 20 -45 28 -53 71 -68 27 -9 76 -17
109 -17 34 0 63 -4 66 -8 10 -17 114 -35 153 -27 21 5 70 10 108 11 117 5 189
12 215 22 15 6 55 7 94 3 80 -8 136 -5 149 8 6 6 17 7 28 1 11 -7 30 -5 56 4
28 10 45 11 58 4 13 -8 24 -7 36 0 21 13 68 8 106 -12 19 -9 46 -13 82 -10 37
4 64 0 88 -11 21 -10 45 -14 63 -10 16 3 37 2 47 -3 31 -16 215 -21 243 -7 14
7 44 17 65 21 22 4 43 11 46 16 3 5 27 11 53 14 40 4 53 0 91 -26 26 -18 46
-26 50 -20 4 7 13 6 27 -1 16 -9 34 -8 73 1 46 11 57 10 86 -4 29 -14 40 -15
84 -4 27 6 58 18 67 26 23 19 174 19 193 0 10 -10 100 4 115 18 18 15 56 9 81
-12 13 -12 22 -10 60 16 38 24 54 47 102 140 31 61 57 118 57 126 0 30 16 11
44 -52 41 -92 95 -149 174 -185 37 -16 78 -32 92 -35 14 -4 56 -20 93 -37 65
-29 70 -30 95 -15 15 9 32 26 39 39 6 12 18 26 27 31 24 13 45 106 45 200 0
49 3 93 7 100 4 6 7 47 6 90 0 43 4 78 9 78 5 0 9 11 9 24 0 14 4 35 9 48 5
13 11 81 15 153 4 71 11 134 16 139 14 14 12 35 -4 52 -14 13 -32 58 -56 141
-11 37 -10 50 9 106 22 68 27 130 12 170 -7 19 -19 26 -48 30 -62 7 -215 45
-225 55 -9 9 57 0 155 -22 32 -7 69 -11 82 -8 21 4 23 7 14 30 -14 35 -27 152
-34 296 -3 65 -8 122 -10 126 -3 4 0 30 5 56 6 27 17 85 25 128 8 43 21 89 30
102 8 13 15 31 15 41 0 10 12 40 26 67 25 48 26 51 14 123 -6 41 -21 95 -33
121 -21 48 -22 73 -13 356 l1 49 -55 13 c-30 6 -104 14 -163 17 -60 3 -111 7
-114 10 -9 10 112 22 219 22 l108 0 0 142 c0 129 2 143 19 152 17 9 28 47 37
121 9 74 8 279 -1 291 -23 30 -37 95 -39 178 -1 47 -8 103 -15 125 -8 21 -11
58 -8 82 2 24 1 44 -3 44 -14 0 -21 32 -9 46 6 7 9 19 6 26 -2 7 0 24 5 37 5
15 4 44 -3 78 -11 49 -11 55 7 68 19 14 19 14 -1 51 -27 51 -63 60 -183 44
-52 -6 -96 -10 -98 -7 -7 7 183 47 223 47 43 0 39 -11 49 129 4 58 3 86 -5 90
-8 5 -12 57 -14 153 -2 115 1 148 13 163 16 20 59 176 60 217 0 15 -5 30 -10
33 -6 4 -10 25 -10 48 2 64 -17 258 -28 297 -48 169 -61 198 -103 229 -29 22
-42 24 -128 23 -86 -1 -99 1 -126 22 -29 23 -33 23 -70 9 -22 -8 -52 -14 -66
-14 -15 0 -36 -9 -47 -19 -12 -11 -30 -17 -43 -15 -42 8 -68 -53 -78 -185 l-6
-85 -39 104 c-38 100 -42 105 -99 147 -33 25 -71 47 -86 50 -14 3 -43 9 -64
15 -20 5 -42 7 -47 4 -6 -4 -46 -8 -90 -9 -61 -2 -85 -7 -100 -21 -11 -10 -23
-15 -27 -12 -3 4 -20 -2 -38 -13 -34 -21 -104 -22 -142 -2 -12 7 -35 12 -50
11 -15 -1 -44 1 -63 5 -41 10 -137 53 -145 66 -6 10 -56 4 -90 -10 -77 -32
-139 -43 -188 -33 -45 9 -54 8 -78 -9 -27 -20 -86 -29 -104 -16 -6 4 -30 2
-54 -4 -38 -10 -46 -8 -73 12 -26 19 -38 21 -77 15 -25 -3 -57 -6 -71 -5 -14
1 -41 1 -60 0 -70 -3 -96 -2 -140 5 -25 4 -49 11 -55 15 -11 9 -216 5 -310 -5
-33 -4 -85 -8 -115 -9 -30 -2 -64 -6 -75 -10 -11 -4 -36 -14 -55 -21 -49 -20
-59 -20 -108 -6 -24 7 -65 10 -92 7 -30 -4 -52 -1 -56 5 -10 17 -55 0 -111
-43 -62 -47 -85 -84 -114 -178 -11 -39 -22 -70 -24 -70 -2 0 -3 36 -4 81 -2
151 -72 222 -248 253 -18 3 -35 1 -38 -4 -3 -6 -24 -10 -46 -10 -21 0 -39 -4
-39 -9 0 -15 -43 -17 -69 -4 -31 15 -101 15 -163 1 -38 -9 -54 -9 -86 4 -33
13 -43 13 -63 2 -28 -16 -81 -18 -95 -4 -5 5 -36 11 -69 13 -33 2 -67 7 -75
10 -29 10 -155 29 -188 28 -18 -1 -51 -10 -72 -21 -22 -11 -47 -20 -57 -20
-10 0 -23 -10 -28 -22 -8 -19 -16 -22 -48 -20 -21 2 -44 -1 -50 -7 -9 -7 -25
-6 -52 4 -22 8 -66 14 -97 15 -31 0 -60 4 -63 10 -18 29 -82 45 -169 43 -48
-1 -94 -7 -101 -13 -7 -5 -26 -7 -42 -4 -20 4 -42 0 -64 -12 -26 -14 -60 -18
-149 -19 -63 -1 -129 -5 -147 -9 -26 -7 -35 -4 -53 16 -14 17 -32 25 -57 26
-20 1 -41 6 -47 12 -22 22 -168 1 -283 -41 -32 -12 -68 -22 -80 -23 -29 -1
-92 -61 -109 -103 -8 -18 -14 -58 -15 -90 l0 -58 -19 40 c-10 22 -19 46 -19
53 -1 19 -56 96 -96 136 -36 36 -72 47 -170 52 -33 1 -76 6 -95 11 -53 14
-375 2 -470 -18 -48 -9 -89 -11 -232 -9 -14 0 -34 8 -44 17 -22 22 -63 24 -74
3 -6 -12 -28 -16 -92 -18 -45 -1 -96 -6 -113 -11 -40 -12 -90 -8 -111 10 -33
27 -67 36 -102 25 -23 -7 -42 -6 -66 2 -39 14 -152 16 -161 2 -9 -14 -33 -1
-41 22 -7 22 -20 14 -26 -16 -2 -11 -13 -21 -28 -23 -13 -2 -34 -10 -47 -18
-14 -9 -24 -11 -28 -5 -7 11 -59 6 -152 -17 -55 -13 -66 -13 -92 0 -30 15
-140 16 -175 2 -11 -5 -41 -4 -68 2 -27 5 -51 6 -54 2 -2 -4 -18 -15 -35 -23
-29 -15 -34 -14 -85 11 -30 14 -54 32 -54 38 0 6 -10 17 -23 24 -20 11 -35 9
-93 -8 -38 -12 -74 -25 -80 -29 -22 -14 -67 -118 -84 -192 l-16 -75 -12 97
c-6 53 -15 105 -21 115 -5 11 -32 31 -59 46 -41 22 -64 27 -138 30 -49 2 -104
-1 -122 -6 -22 -5 -38 -5 -46 2 -7 6 -37 11 -67 10 -30 0 -84 4 -122 10 -40 7
-75 8 -85 3 -26 -14 -167 -7 -267 13 -49 9 -100 17 -113 17 -12 0 -27 9 -33
19 -13 24 -82 28 -73 4z"/>
</g>
</svg>
