<?xml version="1.0" standalone="no"?>
<!DOCTYPE svg PUBLIC "-//W3C//DTD SVG 20010904//EN"
 "http://www.w3.org/TR/2001/REC-SVG-20010904/DTD/svg10.dtd">
<svg version="1.0" xmlns="http://www.w3.org/2000/svg"
 width="1280.000000pt" height="904.000000pt" viewBox="0 0 1280.000000 904.000000"
 preserveAspectRatio="none">
<metadata>
Created by potrace 1.15, written by Peter Selinger 2001-2017
</metadata>
<g transform="translate(0.000000,904.000000) scale(0.100000,-0.100000)"
fill="#ffffff" stroke="none">
<path d="M3595 9021 c-32 -6 -65 -56 -65 -98 0 -12 -5 -25 -11 -29 -6 -3 -8
-16 -5 -29 5 -21 2 -23 -35 -27 -33 -3 -37 -2 -24 8 15 11 15 15 -2 40 -17 27
-18 27 -21 7 -2 -11 -12 -23 -23 -26 -17 -5 -19 -9 -10 -25 6 -11 7 -22 4 -26
-3 -3 2 -14 11 -25 17 -18 17 -19 -2 -25 -10 -4 -26 -4 -35 0 -10 3 -22 -4
-33 -21 -15 -22 -19 -24 -33 -12 -9 8 -31 17 -49 21 -27 5 -43 -1 -88 -29 -58
-37 -76 -38 -67 -5 4 14 0 20 -11 20 -9 0 -16 5 -16 11 0 8 -12 9 -37 4 -21
-4 -47 -7 -58 -8 -28 -2 -55 -28 -55 -53 0 -12 -7 -27 -15 -34 -13 -10 -15 -9
-15 8 0 29 -16 36 -32 15 -7 -10 -18 -19 -25 -20 -6 -2 -30 -6 -53 -9 -41 -7
-42 -6 -31 14 17 31 13 42 -13 42 -25 0 -36 -16 -36 -52 0 -15 -4 -18 -17 -13
-10 4 -25 8 -35 9 -9 1 -23 8 -31 15 -13 10 -18 9 -27 -8 -14 -27 -40 -28 -33
-1 3 11 0 20 -6 20 -6 0 -2 9 9 20 30 30 25 40 -20 40 -45 0 -59 -17 -63 -77
-2 -31 2 -37 21 -42 33 -8 30 -23 -9 -48 -19 -11 -45 -32 -59 -45 -33 -31 -51
-37 -77 -25 -20 9 -21 11 -7 33 14 21 14 26 -2 54 -22 37 -34 38 -34 5 0 -14
-4 -25 -10 -25 -5 0 -10 6 -10 14 0 7 -7 19 -15 26 -12 10 -18 10 -30 0 -19
-16 -19 -25 0 -43 12 -13 12 -16 -8 -21 -34 -9 -40 -7 -28 7 24 30 -28 38 -57
10 -30 -29 -60 -44 -67 -33 -3 5 10 17 30 27 19 9 34 19 32 22 -1 3 -12 27
-24 52 -25 54 -40 67 -58 48 -18 -18 -32 -149 -16 -149 8 0 8 -6 -1 -19 -9
-15 -21 -19 -48 -17 -19 2 -47 0 -62 -5 l-27 -7 5 66 c3 37 10 89 16 116 13
58 6 65 -57 56 -24 -4 -67 -5 -95 -3 -41 2 -51 0 -47 -11 4 -9 0 -12 -13 -9
-12 3 -29 -7 -49 -28 -33 -34 -41 -62 -16 -53 11 5 13 2 8 -12 -5 -13 -3 -16
10 -11 9 3 17 2 17 -3 0 -5 -11 -12 -24 -16 -18 -4 -25 -14 -30 -46 -6 -34
-10 -39 -27 -35 -25 7 -81 -12 -73 -24 3 -5 0 -9 -7 -9 -6 0 -17 -7 -23 -15
-9 -13 -19 -13 -69 -3 -40 8 -60 9 -65 2 -4 -6 -33 -15 -64 -20 -52 -10 -58
-9 -64 8 -6 21 -32 23 -56 4 -21 -15 -23 -32 -5 -39 20 -9 -33 -45 -83 -57
-25 -6 -61 -21 -80 -34 -42 -27 -73 -36 -90 -26 -9 6 -7 11 9 19 11 7 21 20
21 31 0 10 5 22 10 25 6 3 10 24 10 45 0 29 -6 44 -27 62 -19 15 -27 31 -25
46 2 15 -2 22 -12 22 -18 0 -21 15 -6 25 6 3 10 18 10 33 0 15 4 34 9 41 11
18 -4 51 -22 51 -7 0 -14 9 -15 20 -4 48 -5 51 -21 44 -21 -10 -98 -18 -90
-10 3 3 21 8 39 10 19 2 40 12 47 22 11 15 10 20 -5 34 -18 18 -26 18 -79 5
-23 -5 -33 -13 -33 -27 0 -15 -5 -18 -20 -13 -32 10 -40 -3 -22 -38 9 -17 19
-34 22 -37 9 -9 5 -35 -7 -43 -16 -10 -17 -39 -1 -55 10 -10 7 -16 -10 -28
-12 -8 -22 -21 -22 -27 0 -16 81 -69 96 -63 7 3 20 -4 30 -15 9 -10 23 -19 31
-19 19 0 81 -42 87 -60 4 -8 9 -21 12 -27 12 -26 -18 -12 -58 27 -27 25 -52
40 -68 40 -42 0 -68 11 -73 30 -3 11 -18 20 -42 24 -42 8 -105 36 -105 47 0 3
-14 9 -30 13 -17 3 -30 12 -30 20 0 14 -28 36 -46 36 -3 0 -4 -11 -2 -25 4
-17 1 -25 -8 -25 -8 0 -23 -9 -34 -20 -15 -15 -20 -16 -20 -5 0 8 -9 19 -21
25 -39 21 -68 -32 -33 -61 8 -7 22 -26 31 -43 9 -17 21 -34 27 -38 6 -4 11
-17 11 -30 0 -23 13 -30 78 -43 20 -4 32 -16 43 -41 13 -32 18 -35 44 -29 37
8 38 -1 5 -27 -35 -27 -32 -76 5 -84 3 0 13 -4 23 -8 18 -8 47 8 47 26 0 5 -7
16 -15 24 -8 9 -15 20 -15 27 0 6 6 3 13 -8 11 -14 22 -17 55 -12 36 6 40 5
35 -12 -3 -11 -11 -22 -19 -25 -8 -3 -14 -12 -14 -21 0 -9 -8 -27 -17 -41 -13
-20 -14 -30 -5 -44 9 -15 7 -23 -13 -44 -32 -35 -40 -33 -51 12 -5 20 -15 36
-22 34 -7 -1 -12 5 -12 13 0 17 -36 39 -51 29 -6 -3 -17 3 -25 15 -17 24 -46
27 -67 7 -8 -8 -24 -12 -35 -9 -13 3 -28 -3 -42 -17 -19 -19 -21 -29 -15 -64
4 -22 9 -54 12 -71 3 -16 9 -35 14 -41 5 -6 4 -25 -1 -45 -6 -19 -11 -79 -12
-134 -1 -57 -7 -114 -15 -133 -13 -31 -12 -33 9 -42 22 -8 22 -9 2 -9 -15 -1
-24 -11 -33 -41 -15 -50 -9 -62 26 -49 14 5 27 8 28 7 1 -2 5 -26 9 -55 6 -48
4 -54 -24 -86 -34 -39 -43 -95 -12 -81 24 10 62 8 75 -5 8 -8 5 -11 -10 -11
-30 0 -49 -26 -33 -45 7 -8 21 -15 31 -15 10 0 23 -9 29 -20 13 -24 2 -26 -28
-4 -13 9 -22 11 -22 4 0 -8 -6 -8 -21 0 -16 9 -26 8 -46 -5 -21 -14 -24 -22
-19 -48 3 -20 0 -39 -9 -51 -16 -21 -20 -145 -6 -181 5 -12 2 -33 -6 -52 -15
-38 -17 -83 -3 -83 6 0 10 7 10 15 0 13 3 13 20 3 23 -15 30 -9 34 28 2 16 7
29 12 28 24 -1 64 -17 64 -25 0 -6 -8 -5 -19 1 -26 13 -31 13 -31 -4 0 -19 52
-56 79 -56 28 0 28 -33 0 -61 l-21 -21 21 -22 c26 -28 27 -39 1 -31 -22 7 -24
3 -11 -23 10 -18 19 -44 18 -52 -1 -16 28 -52 47 -60 32 -12 38 -54 16 -110
-9 -25 -15 -54 -13 -65 3 -11 8 -45 12 -76 6 -52 5 -55 -11 -46 -14 9 -22 6
-42 -12 -24 -23 -25 -23 -19 -2 6 23 -27 45 -35 23 -2 -8 -8 -8 -18 2 -8 8
-11 21 -8 30 10 26 -6 39 -25 22 -10 -9 -22 -13 -26 -9 -5 5 -5 1 1 -7 17 -24
23 -59 10 -63 -7 -3 -3 -14 10 -33 17 -22 29 -29 54 -27 30 1 31 0 14 -18 -16
-18 -16 -20 4 -42 15 -16 18 -26 11 -39 -16 -29 11 -33 38 -5 28 27 23 51 -8
42 -15 -5 -19 -1 -19 14 0 24 25 28 64 10 25 -12 43 -39 26 -39 -6 0 -10 5
-10 10 0 6 -4 10 -10 10 -12 0 -13 -57 -1 -64 5 -3 11 -18 14 -32 l5 -27 -25
32 c-20 25 -28 29 -43 21 -10 -6 -29 -10 -41 -10 -18 0 -19 -2 -9 -15 7 -8 21
-15 31 -15 27 0 24 -15 -12 -51 -26 -26 -30 -37 -25 -63 9 -44 19 -50 59 -37
45 15 65 37 49 53 -16 16 -15 28 1 28 16 0 57 -53 57 -74 0 -9 -10 -21 -22
-27 -13 -7 -26 -17 -30 -23 -11 -16 -10 -48 2 -41 6 3 10 2 10 -4 0 -5 -4 -13
-10 -16 -16 -10 -12 -62 6 -79 21 -22 35 -20 41 4 4 15 11 19 26 14 11 -3 37
-6 59 -6 27 1 41 -4 48 -18 14 -27 13 -30 -13 -30 -13 0 -28 -5 -34 -11 -16
-16 -36 -1 -30 22 7 25 -24 26 -46 1 -23 -26 -22 -62 2 -62 13 0 17 -6 14 -22
-2 -13 2 -43 10 -68 12 -40 17 -45 40 -43 15 1 27 -1 28 -5 5 -49 4 -124 -3
-128 -4 -3 -8 -18 -8 -35 0 -16 -4 -29 -9 -29 -9 0 -20 -23 -22 -45 0 -5 -7
-18 -16 -27 -15 -16 -25 -63 -25 -115 0 -17 -6 -23 -23 -23 -24 0 -49 -22 -38
-33 3 -4 -1 -7 -10 -7 -9 0 -17 7 -17 15 0 16 -38 35 -69 35 -10 0 -23 -10
-29 -22 -7 -16 -11 -18 -11 -7 -1 19 -32 49 -50 49 -9 0 -12 -11 -9 -35 2 -19
0 -36 -4 -37 -16 -6 -6 -174 12 -192 14 -14 13 -27 -2 -23 -9 1 -12 -7 -9 -23
2 -14 5 -37 5 -53 1 -15 5 -27 9 -27 14 0 1 -121 -13 -130 -9 -5 -11 -20 -7
-44 3 -20 1 -38 -4 -42 -15 -9 0 -24 27 -24 13 0 24 -4 24 -10 0 -5 -14 -10
-31 -10 l-32 0 6 -47 c3 -30 0 -61 -9 -82 -18 -43 -11 -51 19 -23 29 28 46 29
22 2 -17 -19 -17 -20 1 -20 18 -1 18 -1 -1 -15 -34 -25 -45 -35 -45 -46 0 -6
7 -6 19 1 54 28 82 -2 80 -83 -1 -23 2 -64 6 -92 l8 -50 -26 29 c-13 16 -29
26 -35 22 -6 -3 -13 2 -17 13 -4 13 -12 17 -25 14 -17 -5 -18 -14 -16 -116 2
-62 -1 -119 -7 -128 -5 -9 -7 -28 -3 -43 5 -22 10 -26 21 -16 8 6 38 18 67 25
47 12 51 12 34 0 -11 -8 -24 -15 -29 -15 -13 0 -81 -64 -86 -81 -2 -8 -5 -54
-6 -102 -2 -67 -7 -92 -20 -107 -14 -15 -15 -23 -6 -34 15 -18 48 -9 62 15 12
24 56 25 87 3 31 -22 39 -11 14 21 -12 15 -18 34 -15 45 8 31 23 35 23 6 0
-24 19 -51 41 -58 7 -2 3 -16 -10 -39 -12 -20 -22 -48 -23 -62 -3 -32 -1 -31
-44 -11 -19 9 -41 14 -49 10 -23 -9 -18 -36 8 -37 16 -1 18 -2 5 -6 -10 -2
-18 -6 -18 -9 0 -2 16 -27 36 -56 l37 -52 -7 -96 c-4 -53 -4 -99 0 -103 11
-10 13 -67 3 -67 -15 0 -32 -51 -35 -100 -2 -50 13 -110 30 -123 8 -6 7 -10
-2 -14 -17 -7 -5 -23 13 -17 8 4 12 10 9 15 -3 5 1 9 9 9 8 0 17 -12 20 -27 6
-32 -6 -62 -17 -44 -4 6 -15 11 -25 11 -10 0 -23 11 -29 24 -8 17 -21 25 -56
29 -64 9 -76 2 -76 -43 0 -22 5 -42 10 -45 6 -4 5 -12 -5 -21 -18 -18 -31 -70
-39 -153 l-6 -64 45 5 c41 5 48 3 71 -25 30 -36 24 -45 -36 -49 -42 -3 -45 -5
-47 -36 -2 -22 2 -35 12 -38 8 -4 15 -13 15 -21 0 -9 -11 -3 -31 17 -17 17
-33 30 -34 28 -2 -2 6 -52 16 -113 10 -60 19 -134 19 -163 0 -33 4 -51 10 -47
5 3 10 -1 10 -9 0 -8 -4 -17 -9 -20 -4 -3 -9 -25 -9 -48 -1 -24 -3 -65 -5 -93
-2 -36 1 -53 12 -63 14 -11 14 -11 -1 -6 -12 4 -18 -1 -22 -18 -2 -12 -9 -50
-16 -83 -21 -106 -22 -114 -16 -140 4 -15 11 -22 20 -19 8 3 17 0 21 -6 8 -13
-14 -42 -26 -34 -13 8 -11 -44 5 -102 12 -45 12 -52 -3 -61 -13 -9 -14 -15 -5
-30 6 -10 15 -47 19 -81 4 -34 11 -65 16 -68 5 -3 9 0 9 6 0 6 5 8 10 5 6 -4
2 -16 -10 -32 -21 -27 -19 -55 6 -81 8 -7 14 -18 14 -23 0 -5 9 -9 20 -9 16 0
20 -7 20 -37 l0 -37 32 30 32 29 -27 -37 c-16 -21 -24 -38 -18 -38 13 0 3 -66
-15 -102 -8 -15 -14 -36 -14 -47 0 -19 7 -21 47 -7 16 5 33 0 62 -19 44 -29
66 -29 66 1 0 10 7 20 16 22 13 2 15 -3 12 -23 -3 -14 -1 -25 4 -25 5 0 8 16
8 35 -1 23 3 35 12 35 8 0 13 13 13 38 1 37 29 105 30 70 0 -21 16 -32 31 -22
7 4 27 8 45 10 26 2 32 0 27 -12 -4 -10 0 -12 11 -8 9 4 15 12 13 18 -6 17 12
46 28 46 8 0 16 -9 16 -20 1 -11 2 -26 3 -32 1 -15 66 -24 66 -10 0 6 17 20
37 32 31 18 46 21 92 15 68 -9 81 -14 81 -31 0 -20 39 -56 51 -48 6 3 9 14 6
23 -2 10 1 25 8 34 11 16 14 15 29 -7 21 -33 20 -49 -2 -69 -26 -23 -29 -22
-79 24 -56 51 -87 51 -88 -1 0 -32 3 -35 35 -40 19 -4 54 -18 77 -33 43 -27
63 -33 63 -19 0 4 -5 13 -11 19 -9 9 -3 14 22 21 27 7 33 13 31 30 -2 12 2 22
7 22 6 0 11 6 11 14 0 27 16 25 53 -5 20 -17 41 -28 46 -25 5 4 16 -1 24 -9 9
-8 22 -13 29 -10 19 7 98 -62 98 -86 0 -25 8 -24 30 4 19 24 80 35 120 22 18
-6 18 -7 -1 -26 -26 -26 -24 -39 11 -52 17 -6 30 -17 30 -25 0 -7 14 -18 30
-23 16 -6 30 -14 30 -17 0 -4 33 -8 73 -9 l72 -3 23 41 c13 22 26 38 29 35 10
-9 32 14 27 28 -10 25 35 50 93 52 44 2 63 -3 91 -22 19 -13 39 -24 43 -24 5
0 9 -9 9 -20 0 -11 4 -20 9 -20 5 0 7 -9 4 -20 -5 -19 0 -20 61 -20 37 0 66 4
66 10 0 6 -11 10 -24 10 -13 0 -34 9 -47 21 -23 19 -23 20 -2 10 29 -14 63
-14 63 1 0 6 7 4 18 -5 10 -10 29 -17 43 -17 18 0 20 -3 10 -9 -8 -5 -21 -7
-29 -3 -10 3 -13 1 -8 -6 8 -13 69 -8 116 8 14 5 144 12 290 15 150 3 266 10
268 15 2 6 10 3 19 -5 28 -28 90 9 78 46 -4 11 4 24 22 38 26 20 27 22 11 35
-29 22 -21 35 20 32 20 -2 55 -4 77 -5 30 -1 36 -4 27 -13 -20 -20 -13 -38 16
-39 26 -1 26 -1 -5 -10 -18 -5 -33 -15 -33 -22 0 -7 -11 -17 -25 -24 -14 -6
-23 -7 -20 -3 3 5 1 12 -5 15 -16 10 -60 -23 -60 -45 0 -12 -5 -17 -14 -14 -8
3 -17 1 -20 -4 -8 -13 55 -25 67 -13 7 7 17 7 29 0 10 -5 62 -14 116 -19 65
-6 125 -20 182 -41 72 -26 107 -32 225 -39 77 -5 152 -12 167 -15 21 -6 29 -2
38 15 8 15 8 25 0 34 -8 10 -6 15 6 20 13 5 14 9 4 21 -7 8 -19 15 -26 15 -8
0 -14 7 -14 15 0 8 9 15 21 15 11 0 18 -4 15 -9 -9 -14 17 -19 37 -7 30 19 52
-5 55 -58 l3 -47 57 2 c31 1 59 0 62 -1 7 -4 47 -9 108 -14 40 -3 55 -1 59 10
3 8 9 12 13 9 4 -3 14 2 21 11 10 13 10 17 -2 25 -8 5 -9 9 -4 9 6 0 16 -5 23
-12 9 -9 17 -9 36 1 29 16 46 8 45 -22 0 -12 -3 -16 -6 -9 -6 16 -18 15 -37
-4 -22 -22 -20 -44 4 -44 12 0 31 -6 43 -14 12 -8 39 -17 59 -20 29 -5 41 -3
57 13 11 11 21 18 23 17 1 -2 15 -6 31 -10 20 -5 27 -3 27 8 0 16 -21 26 -55
26 -19 0 -23 6 -27 40 -2 27 1 41 10 45 7 3 11 9 8 14 -4 5 7 19 24 31 l30 21
27 -25 c15 -14 32 -26 38 -27 70 -5 162 -4 170 1 6 4 23 10 39 14 24 6 27 4
22 -9 -3 -9 -6 -21 -6 -26 0 -5 -8 -9 -18 -9 -28 0 -43 -20 -31 -42 7 -13 21
-18 52 -19 41 0 42 0 20 -16 -30 -21 -29 -29 8 -49 35 -18 79 -13 135 14 26
12 37 13 46 4 9 -9 17 -3 35 23 27 39 57 45 73 15 12 -22 40 -26 58 -8 20 20
14 45 -13 52 -30 8 -33 32 -5 41 11 3 20 11 20 16 0 5 11 9 24 9 19 0 23 -4
19 -19 -3 -10 0 -22 6 -25 17 -11 13 -26 -4 -20 -8 4 -15 2 -15 -4 0 -25 56
-28 118 -7 60 21 80 35 80 59 0 12 2 30 4 41 2 12 -2 19 -9 17 -7 -1 -13 7
-13 17 0 11 -5 23 -11 27 -7 4 1 12 19 20 25 10 39 10 78 -2 27 -8 53 -13 58
-11 5 2 17 -3 25 -10 9 -7 35 -29 57 -48 46 -39 60 -42 92 -19 18 12 22 25 22
69 0 30 5 57 10 60 6 3 10 -3 10 -15 0 -11 8 -24 17 -27 21 -8 76 54 69 80 -3
11 9 30 31 52 31 30 43 35 85 35 27 0 64 7 84 15 19 8 32 10 29 5 -3 -6 3 -10
15 -10 11 0 23 7 27 16 9 23 59 11 105 -26 45 -37 65 -38 80 -5 8 18 15 22 23
15 7 -5 15 -7 18 -3 12 11 8 23 -8 23 -8 0 -15 7 -15 15 0 20 15 19 50 -2 36
-21 60 -5 60 38 l0 28 80 -4 c44 -2 82 1 86 6 3 5 17 9 31 9 15 0 40 4 57 9
17 5 60 15 95 21 35 6 72 17 83 23 15 10 21 9 31 -4 21 -28 63 -50 82 -43 12
5 16 4 11 -4 -4 -6 0 -22 9 -36 16 -24 49 -38 103 -44 9 -1 11 -9 7 -22 -6
-18 -1 -20 37 -22 24 0 52 0 63 1 20 2 75 -18 128 -46 16 -8 31 -13 34 -10 10
11 -19 47 -38 47 -15 0 -20 5 -17 23 2 16 9 21 26 20 14 -2 22 3 22 12 0 8 9
15 19 15 11 0 23 9 27 22 6 20 7 21 19 4 10 -12 15 -14 20 -5 6 8 10 7 17 -5
13 -23 26 -20 30 7 2 18 9 22 37 22 18 1 38 7 45 15 17 23 54 16 106 -20 14
-10 34 -20 45 -23 18 -4 18 -5 -2 -6 -16 -1 -24 -9 -29 -28 -10 -49 -16 -61
-21 -41 -5 22 -45 33 -70 20 -10 -6 -39 -8 -66 -5 -35 4 -47 2 -48 -8 -1 -8
-3 -25 -4 -39 -1 -14 -3 -31 -4 -39 -1 -10 -4 -11 -14 -3 -10 8 -16 4 -26 -19
-10 -23 -16 -27 -26 -19 -11 9 -15 4 -21 -24 -3 -20 -11 -36 -18 -36 -6 -1 -2
-8 10 -18 11 -9 22 -21 25 -27 2 -5 9 -8 14 -6 6 2 43 7 84 12 77 9 137 25
159 42 8 6 16 6 25 -2 20 -16 134 -15 402 3 57 4 105 20 105 36 0 6 15 8 40 4
36 -6 40 -4 45 19 11 41 -2 50 -39 27 -36 -22 -56 -26 -56 -10 0 6 8 10 18 10
23 0 42 19 42 41 0 10 9 21 21 24 11 4 25 20 31 35 6 19 15 27 24 23 7 -3 16
2 20 10 3 9 11 14 18 11 6 -2 20 2 31 10 13 10 15 15 6 16 -11 0 -11 3 0 16
10 13 10 17 -2 25 -8 5 -20 9 -26 9 -19 0 -15 12 11 38 13 12 35 22 48 22 27
0 68 -38 68 -63 0 -9 8 -21 18 -26 9 -6 13 -11 7 -11 -5 -1 4 -7 20 -14 20 -9
36 -10 48 -4 10 5 32 6 49 3 21 -5 28 -4 24 4 -4 6 -2 11 3 11 6 0 11 -6 11
-12 1 -9 5 -8 13 3 21 27 62 31 82 9 10 -11 24 -20 32 -20 7 0 13 -6 13 -14 0
-21 29 -40 64 -41 27 0 31 -4 31 -27 1 -15 11 -38 22 -50 12 -13 25 -35 28
-50 7 -28 37 -39 50 -19 9 16 95 25 108 12 8 -8 3 -11 -21 -11 -22 0 -32 -5
-32 -15 0 -18 12 -19 29 -2 10 10 11 6 5 -18 -4 -16 -11 -33 -17 -36 -5 -4 -4
-10 4 -15 7 -4 14 -3 17 4 2 6 10 8 18 5 20 -7 44 28 66 96 10 30 22 59 28 66
5 6 7 15 3 18 -7 7 15 37 28 37 12 0 -9 -63 -25 -75 -11 -9 -10 -15 8 -35 34
-40 75 -63 90 -51 7 6 16 8 20 4 4 -4 4 1 0 11 -6 16 -4 17 12 8 25 -13 68 3
60 23 -3 8 1 18 8 22 8 5 22 26 32 48 l18 40 3 -35 c6 -56 16 -69 22 -30 4 22
12 35 21 35 22 0 24 -34 4 -56 -16 -18 -16 -19 0 -19 9 0 14 -5 11 -10 -4 -6
-11 -7 -17 -4 -6 4 -17 0 -23 -10 -11 -14 -14 -15 -25 -1 -17 21 -37 19 -43
-4 -3 -14 -11 -18 -26 -14 -31 8 -51 -40 -27 -66 10 -10 16 -27 14 -36 -2 -14
9 -21 51 -33 l54 -15 36 41 c41 49 64 52 120 20 41 -23 91 -19 91 7 0 8 5 15
10 15 6 0 10 -7 10 -15 0 -9 9 -15 21 -15 16 0 19 3 11 12 -11 14 -82 138 -82
144 0 2 10 -1 23 -7 25 -11 57 -61 57 -89 0 -9 7 -23 16 -31 13 -10 19 -10 36
0 17 11 20 11 16 -1 -3 -7 -2 -23 3 -35 10 -27 50 -31 69 -8 7 8 17 15 23 15
6 0 1 -10 -11 -22 -17 -17 -34 -23 -67 -23 -64 0 -56 -20 10 -22 44 -2 62 2
91 22 36 25 36 25 13 34 l-24 10 23 0 c15 1 26 -8 35 -26 23 -54 67 -64 67
-17 0 15 -16 41 -40 66 -22 23 -40 46 -40 50 0 5 -12 13 -26 18 -39 15 -23 35
31 38 l48 3 -28 29 c-31 33 -27 52 7 31 13 -8 23 -9 27 -3 3 5 17 12 30 13 22
4 26 -1 36 -41 10 -41 14 -45 42 -47 17 0 40 -6 51 -12 22 -12 71 0 83 21 4 6
19 -5 35 -26 16 -20 35 -36 43 -36 8 0 22 -7 32 -16 12 -11 49 -19 116 -24
121 -10 131 -14 125 -46 -4 -24 11 -33 24 -13 4 7 11 2 18 -13 7 -12 18 -22
24 -20 8 1 12 -12 12 -37 0 -41 20 -67 44 -58 12 5 13 13 5 39 -5 18 -9 34 -9
36 0 1 11 -5 24 -13 23 -15 25 -15 35 4 16 28 -23 65 -61 57 -28 -6 -61 18
-36 26 10 4 10 9 -2 23 -14 17 -12 18 40 11 30 -4 65 -7 78 -7 12 0 25 -6 28
-14 4 -8 17 -15 31 -15 13 0 32 -4 42 -10 29 -15 118 -22 156 -11 26 7 35 6
34 -2 -3 -27 2 -37 21 -37 31 0 24 -15 -12 -25 -18 -6 -33 -17 -33 -25 0 -18
50 -26 68 -12 8 7 18 6 31 -4 11 -8 31 -14 44 -14 21 0 23 3 17 27 -6 27 -6
27 13 9 20 -17 22 -17 67 10 42 24 51 26 79 16 42 -15 46 -15 46 2 0 8 5 18
11 22 9 5 10 -1 5 -20 -8 -31 -6 -32 35 -7 17 10 39 17 49 14 11 -3 28 6 44
24 29 31 33 45 12 37 -13 -5 -13 -2 -3 20 7 14 16 26 20 26 8 0 69 40 77 52 3
4 26 5 50 3 25 -2 48 -4 51 -4 4 -1 9 -10 12 -21 6 -23 37 -26 67 -7 17 10 22
9 29 -2 5 -7 14 -10 20 -6 7 4 28 -1 47 -10 19 -9 54 -17 77 -18 l42 -2 2 45
c1 24 7 46 12 48 6 2 11 14 11 26 0 33 9 37 42 20 40 -20 74 -15 70 11 -2 15
1 13 13 -7 9 -16 17 -28 19 -28 2 0 3 24 2 53 -2 71 -40 130 -48 74 -2 -17
-11 -23 -35 -25 -18 -2 -33 -1 -33 2 0 11 44 91 52 94 14 6 9 22 -7 22 -8 0
-15 5 -15 10 0 13 37 13 42 -1 2 -5 10 -8 18 -4 22 8 19 114 -3 127 -10 5 -17
14 -17 21 0 7 4 6 10 -3 5 -8 12 -12 15 -8 4 3 0 12 -8 19 -10 10 -12 21 -6
36 12 31 5 70 -16 93 -19 21 -7 28 13 8 15 -15 15 -10 1 33 -20 63 -31 80 -51
73 -20 -6 -24 6 -8 22 7 7 -2 14 -26 23 -29 10 -33 15 -23 27 6 8 8 14 4 14
-4 0 -2 7 5 15 9 10 9 15 1 15 -6 0 -11 -4 -11 -10 0 -5 -11 -10 -24 -10 -31
0 -56 34 -56 75 0 17 -5 36 -12 43 -7 7 -11 37 -10 80 2 58 -2 75 -28 125
l-30 59 17 54 c9 30 20 54 25 54 4 0 5 -6 2 -14 -4 -10 4 -16 25 -21 34 -7 51
-1 51 21 0 8 12 19 26 24 21 9 25 15 20 35 -7 29 -4 30 29 9 14 -9 25 -12 25
-6 0 23 -31 82 -44 82 -8 0 -16 7 -20 15 -4 12 0 14 19 9 21 -5 25 -3 25 15 0
13 -7 21 -17 22 -16 0 -16 1 1 8 24 9 13 16 -36 25 -34 6 -38 5 -38 -14 0 -20
-19 -23 -32 -5 -11 15 -44 -9 -40 -29 2 -9 -1 -16 -5 -16 -20 1 -29 19 -30 62
-2 54 -19 91 -63 138 -29 31 -30 34 -14 51 14 16 15 23 4 48 -6 16 -9 35 -5
41 12 20 14 70 3 70 -6 0 -9 3 -5 6 6 7 -30 81 -44 90 -5 3 -9 16 -9 28 0 27
-35 76 -55 76 -20 0 -24 23 -14 69 5 23 7 66 5 96 -4 49 -3 54 16 57 31 4 33
26 4 34 -31 7 -33 17 -6 42 18 17 19 20 5 32 -27 22 -16 30 40 30 41 0 57 4
62 16 9 25 -14 41 -37 26 -12 -7 -20 -8 -20 -2 0 5 9 15 20 22 11 7 20 18 20
24 0 7 9 10 21 7 14 -4 27 0 35 12 11 15 8 22 -22 53 -44 45 -35 56 11 12 37
-36 37 -36 52 29 9 36 17 43 68 58 22 6 31 15 33 33 8 87 10 114 5 103 -10
-25 -24 -12 -21 20 2 24 7 32 22 30 16 -1 18 4 13 43 -3 32 1 56 18 92 30 65
47 145 36 174 -4 13 -5 36 0 51 8 29 -9 121 -23 125 -20 5 -39 1 -34 -7 7 -11
-22 -25 -45 -22 -9 1 -28 -3 -42 -8 -31 -12 -57 -5 -57 15 0 8 -10 18 -22 23
-12 4 -17 10 -12 14 5 3 24 -1 42 -10 32 -16 33 -15 68 20 21 21 33 41 29 47
-5 9 -1 10 15 5 14 -4 37 0 61 10 32 15 37 21 28 36 -14 27 -48 44 -62 30 -18
-18 -30 -13 -24 10 8 31 -9 70 -28 63 -8 -3 -15 -2 -15 4 0 6 -22 13 -50 17
-53 7 -69 25 -22 25 42 0 103 -25 122 -50 20 -26 39 -20 41 13 1 17 3 15 9 -8
l7 -30 7 27 c6 20 2 39 -13 68 -19 36 -19 42 -6 74 8 20 19 64 24 98 5 35 12
70 15 78 5 12 -4 19 -36 27 -24 7 -44 8 -46 3 -2 -5 -11 -1 -21 9 -10 10 -24
20 -30 22 -14 5 -16 44 -6 122 l8 59 33 -7 c29 -5 38 -1 69 29 19 20 35 38 35
41 0 15 -39 2 -58 -20 -22 -26 -47 -31 -71 -16 -9 6 -10 10 -2 16 7 4 18 2 25
-4 18 -15 34 4 28 35 -2 13 -10 24 -16 24 -8 0 -13 19 -15 47 -1 26 -5 52 -8
57 -4 6 1 5 10 -3 10 -8 17 -9 17 -3 0 6 -5 14 -11 18 -10 6 -8 51 4 99 3 11
6 44 6 74 1 43 4 52 16 47 12 -4 15 3 15 33 0 29 7 47 30 71 34 37 36 40 15
40 -8 0 -15 7 -15 15 0 8 -9 19 -21 25 -16 9 -19 17 -14 43 4 18 15 38 26 46
24 17 25 41 0 41 -21 0 -74 -39 -53 -40 6 0 12 -5 12 -10 0 -6 -7 -6 -19 1
-17 11 -17 14 -3 43 8 17 20 38 27 46 22 29 45 127 50 220 4 51 10 101 15 111
6 9 16 59 25 111 8 51 19 113 24 138 5 25 8 85 6 133 -1 48 2 90 6 93 5 3 9
12 9 21 0 9 8 22 17 28 16 12 16 15 2 32 -23 26 -32 60 -31 121 0 28 -4 52 -9
52 -5 0 -9 14 -9 30 0 17 -7 45 -16 61 -8 17 -14 32 -12 34 12 12 37 6 56 -13
26 -26 65 -26 70 0 4 21 -55 78 -80 78 -19 0 -24 15 -9 25 6 3 18 -3 28 -14
10 -11 31 -24 46 -30 23 -9 27 -8 27 7 0 29 -54 75 -79 67 -29 -9 -47 4 -26
19 14 10 12 16 -18 48 -27 30 -33 44 -29 65 3 16 7 22 9 16 7 -21 22 -15 38
17 20 39 20 44 -15 83 l-29 34 11 87 c9 68 9 92 0 107 -16 25 -15 32 3 25 8
-3 15 -1 15 4 0 6 -4 10 -10 10 -15 0 -12 26 5 40 13 11 13 14 -1 27 -9 9 -12
23 -8 37 9 29 25 44 31 29 6 -18 68 -16 82 1 7 8 11 30 9 48 -2 26 -10 37 -38
50 -19 10 -28 18 -19 18 37 0 65 64 34 76 -12 5 -13 10 -5 20 8 9 8 18 1 33
-15 26 -14 38 1 23 7 -7 20 -12 30 -12 33 0 51 65 26 92 -7 7 -14 28 -14 46
-1 18 -12 53 -24 79 -21 45 -21 47 -4 79 17 32 17 35 2 51 -15 15 -21 15 -43
3 -14 -7 -27 -11 -29 -9 -2 2 -20 25 -40 52 -36 47 -36 48 -14 56 14 5 28 5
35 -1 7 -5 16 -7 22 -4 5 3 12 -1 15 -10 6 -15 47 -17 46 -1 0 4 0 25 0 46 0
33 -4 40 -22 43 -17 2 -24 13 -30 42 -5 22 -13 45 -19 53 -9 10 -7 13 10 13
11 0 21 5 21 10 0 6 -4 10 -9 10 -4 0 -11 16 -14 35 -3 19 -17 49 -30 67 -14
18 -28 43 -32 56 -10 32 -22 27 -17 -8 4 -29 3 -30 -29 -24 -49 8 -59 12 -59
23 0 5 9 11 20 14 23 6 27 27 5 27 -20 0 -19 10 2 25 17 13 17 14 -1 34 -10
11 -31 23 -46 26 -15 3 -38 17 -50 31 -26 26 -45 32 -37 10 11 -28 -15 -35
-37 -11 -26 29 -86 44 -86 22 0 -8 10 -21 23 -30 19 -13 20 -16 5 -22 -10 -4
-35 6 -68 29 -29 20 -57 36 -64 36 -19 0 -33 -14 -37 -35 -3 -11 -17 -26 -33
-34 -16 -7 -31 -21 -33 -31 -6 -21 -67 -34 -93 -20 -25 14 -97 18 -160 9 -95
-13 -132 -19 -142 -25 -5 -3 -17 1 -26 9 -9 8 -26 17 -36 18 -18 4 -18 5 -3
20 19 19 13 29 -18 29 -26 0 -45 -18 -38 -36 3 -10 0 -12 -10 -8 -17 6 -37
-23 -37 -55 0 -14 -8 -22 -25 -26 -14 -3 -37 -8 -52 -11 -23 -4 -25 -3 -14 10
10 11 10 20 1 37 -11 19 -10 21 5 15 11 -4 25 0 36 10 26 23 24 37 -3 28 -19
-6 -19 -3 6 18 25 21 27 27 17 46 -11 21 -14 21 -40 8 -22 -12 -31 -12 -40 -3
-10 9 -22 2 -53 -33 -24 -26 -34 -33 -24 -17 15 24 15 27 1 27 -9 0 -18 6 -21
14 -3 8 -17 17 -32 21 -20 5 -23 8 -11 16 11 7 9 9 -7 9 -35 0 -49 -25 -30
-55 19 -29 21 -44 4 -27 -7 7 -19 12 -27 12 -22 -1 -64 -37 -56 -50 12 -19 -6
-32 -19 -14 -17 23 -30 2 -22 -32 5 -17 12 -24 22 -20 11 4 13 0 8 -22 -4 -15
-13 -34 -22 -42 -8 -8 -12 -10 -9 -4 4 6 -3 19 -14 29 -15 15 -25 17 -47 9
-15 -5 -27 -16 -27 -24 0 -19 -32 -45 -67 -53 -14 -4 -48 -24 -75 -46 -30 -24
-65 -41 -91 -46 -25 -4 -39 -11 -36 -18 3 -8 -11 -12 -41 -13 -27 0 -52 -7
-63 -17 -25 -23 -45 -21 -88 8 -20 14 -45 25 -56 25 -10 0 -36 11 -57 25 -31
19 -47 23 -76 18 l-38 -6 7 39 c4 21 17 49 28 61 26 27 40 107 23 129 -6 9
-20 14 -30 12 -13 -2 -23 5 -29 18 -13 29 -65 61 -130 77 -46 12 -56 13 -56 2
0 -8 7 -20 15 -29 19 -19 19 -37 0 -30 -11 4 -19 -3 -26 -25 -9 -25 -17 -31
-39 -31 -23 0 -27 4 -23 20 4 15 0 20 -16 20 -15 0 -21 -6 -21 -24 0 -28 16
-43 50 -48 18 -2 28 -12 36 -38 14 -43 26 -47 64 -20 42 30 38 7 -5 -26 -28
-21 -35 -33 -36 -63 l-1 -36 -12 35 c-21 57 -85 51 -87 -9 -1 -17 -4 -10 -10
19 -9 44 -29 70 -56 70 -7 0 -13 -9 -13 -21 0 -11 -5 -17 -10 -14 -6 3 -10 15
-10 27 0 19 -2 19 -22 6 -23 -16 -29 -49 -15 -81 5 -10 6 -21 3 -24 -4 -5 -20
27 -47 96 -9 22 -7 23 21 19 37 -6 55 13 63 65 6 41 1 67 -15 67 -5 0 -7 -4
-4 -8 3 -4 -11 -9 -30 -9 -32 -1 -34 0 -17 14 17 13 16 14 -7 8 -14 -4 -38
-10 -55 -14 -23 -5 -31 -14 -35 -36 l-5 -30 -23 36 c-12 20 -22 40 -22 45 0 5
-9 20 -19 34 -15 19 -27 24 -56 22 -34 -3 -36 -1 -21 13 13 13 13 20 3 35 -6
11 -16 20 -22 21 -25 3 -61 -4 -66 -13 -9 -14 -65 -6 -62 9 3 15 -88 6 -98
-10 -4 -5 -8 -4 -11 3 -2 7 -25 13 -57 14 -46 1 -56 -2 -69 -21 -8 -13 -20
-23 -27 -23 -7 0 -18 -7 -25 -15 -12 -14 -15 -14 -30 0 -24 22 -46 19 -69 -11
-25 -32 -26 -44 -5 -44 13 0 14 -3 4 -15 -7 -8 -9 -23 -5 -32 6 -17 7 -17 21
1 12 17 14 18 14 3 0 -9 8 -17 17 -17 16 0 16 -1 -1 -13 -16 -11 -15 -15 13
-41 38 -36 47 -29 33 24 -9 36 -8 40 8 40 11 0 17 -7 16 -17 -2 -33 29 -20 32
13 3 26 10 34 45 49 23 10 47 16 52 15 34 -11 88 6 127 38 25 21 46 0 45 -44
-1 -25 5 -39 21 -49 11 -9 19 -22 16 -29 -3 -8 -1 -17 5 -21 17 -10 13 -26 -6
-23 -12 2 -18 -3 -17 -14 2 -23 -12 -23 -24 -1 -12 21 -42 10 -42 -17 0 -26
37 -63 56 -56 8 3 14 2 14 -3 0 -16 -72 -21 -94 -6 -11 8 -29 15 -39 15 -30 0
-32 29 -2 52 23 18 25 23 13 32 -8 6 -14 25 -14 41 1 29 0 30 -49 31 -58 0
-85 -10 -85 -33 0 -9 -7 -25 -17 -35 -15 -17 -15 -19 0 -36 13 -14 14 -21 5
-30 -16 -16 7 -42 37 -42 42 0 55 -10 43 -30 -9 -14 -16 -16 -29 -9 -11 6 -20
5 -24 -1 -3 -5 -14 -1 -25 10 -12 12 -34 20 -55 20 -32 0 -35 3 -36 30 -2 39
-3 42 -13 59 -7 12 -12 11 -24 -5 -10 -13 -16 -15 -19 -6 -13 33 -106 -14
-133 -68 -21 -41 -40 -52 -40 -24 0 10 -6 14 -14 11 -10 -4 -13 -1 -9 9 8 22
-11 16 -37 -12 -21 -21 -22 -27 -10 -34 10 -7 11 -10 3 -10 -23 0 -14 -40 12
-52 14 -6 25 -16 25 -21 0 -6 -3 -7 -6 -4 -4 4 -19 -3 -35 -14 -24 -17 -34
-18 -68 -9 -21 5 -44 17 -51 25 -14 17 -50 20 -50 4 0 -6 9 -13 20 -16 15 -4
18 -11 14 -29 -5 -19 -1 -26 17 -34 18 -7 13 -8 -21 -3 -25 3 -50 9 -55 14
-10 7 -41 14 -107 23 -10 1 -21 5 -24 9 -4 4 -16 7 -27 7 -15 0 -18 5 -13 23
3 12 6 25 6 29 0 3 8 4 19 1 21 -5 25 0 35 40 4 18 2 27 -6 27 -17 1 -67 39
-50 40 6 0 12 6 12 14 0 21 -39 27 -77 11 -38 -16 -45 -45 -10 -46 l22 0 -22
-11 c-28 -14 -29 -32 -2 -66 25 -32 12 -39 -30 -17 -17 8 -56 21 -87 28 -52
12 -58 16 -68 48 -12 37 -41 47 -95 34 -23 -6 -24 -8 -8 -16 9 -6 17 -15 17
-20 0 -6 -4 -7 -10 -4 -5 3 -23 -1 -39 -10 -17 -8 -38 -15 -47 -15 -16 0 -16
1 -1 18 23 26 22 52 -3 52 -11 0 -20 7 -20 15 0 8 -6 15 -13 15 -9 0 -13 15
-13 47 1 43 -2 48 -26 57 -32 11 -46 3 -30 -17 16 -19 5 -27 -34 -27 -27 0
-37 -6 -49 -30 -16 -31 -20 -60 -7 -60 4 0 13 -10 21 -21 12 -20 11 -21 -15
-16 -15 3 -48 -1 -73 -9 -38 -11 -55 -11 -118 3 -40 9 -73 20 -73 24 0 9 -17
10 -160 10 l-105 -1 37 35 c22 21 49 36 65 36 16 1 35 3 43 4 8 1 21 3 28 4
17 2 15 26 -4 42 -10 8 -18 9 -22 3 -4 -6 -23 -11 -42 -12 -35 -2 -35 -2 -34
39 1 32 6 43 24 52 39 20 33 34 -18 44 -57 11 -78 7 -62 -12 11 -13 11 -13
-60 -16 -39 -1 -64 5 -73 19 -12 19 -28 15 -59 -15 -29 -28 -37 -60 -15 -68 6
-3 13 -17 14 -31 1 -19 -2 -23 -10 -15 -6 6 -24 11 -39 11 -17 0 -28 5 -28 14
0 23 -50 26 -71 5 -11 -11 -19 -23 -19 -29 0 -15 -17 -12 -35 7 -10 10 -15 26
-12 40 4 20 1 24 -14 20 -21 -6 -36 23 -18 34 7 4 9 14 6 23 -7 18 -32 22 -42
6 -3 -5 -12 -7 -21 -3 -13 5 -13 8 2 24 16 17 15 19 -8 28 -18 7 -38 5 -69 -5
-43 -15 -44 -15 -62 10 -15 22 -27 26 -65 26 -58 0 -77 -11 -69 -39 3 -12 1
-21 -3 -21 -5 0 -10 10 -12 23 -2 17 -8 21 -28 19 -14 -2 -36 -11 -50 -20 -14
-9 -31 -15 -38 -14 -21 5 -27 -30 -8 -43 13 -10 14 -14 4 -18 -10 -3 -10 -9
-1 -24 8 -14 8 -24 1 -31 -16 -16 -36 -3 -31 19 4 13 0 19 -11 19 -9 0 -16 -7
-16 -15 0 -12 -4 -13 -25 -3 -15 6 -25 20 -25 31 0 11 3 17 7 14 10 -11 43 24
43 45 0 11 -4 16 -10 13 -5 -3 -10 2 -10 12 0 10 -9 24 -20 31 -17 10 -20 10
-20 -2 0 -8 -5 -18 -12 -22 -8 -5 -9 2 -5 24 8 37 2 39 -37 13 -23 -15 -33
-17 -47 -8 -13 8 -24 8 -44 -1 -14 -7 -38 -12 -53 -12 -33 0 -52 -16 -52 -44
0 -18 -3 -17 -29 8 -30 29 -39 81 -12 71 17 -7 31 12 31 43 0 18 5 22 35 22
36 0 62 28 51 56 -8 20 4 17 31 -8 17 -16 26 -19 34 -11 18 18 -7 53 -40 53
-17 0 -36 10 -49 25 l-23 26 -24 -30 c-14 -16 -25 -36 -25 -44 0 -17 -28 -43
-37 -34 -3 4 1 9 10 13 9 3 14 11 11 18 -3 7 -1 31 5 55 8 36 6 43 -9 51 -47
25 -101 4 -79 -31 11 -18 12 -32 1 -25 -13 8 -82 -43 -82 -59 0 -8 4 -15 10
-15 12 0 8 -43 -5 -52 -5 -4 -21 7 -35 24 l-26 31 -32 -19 c-21 -12 -32 -26
-32 -42 0 -20 -3 -21 -20 -12 -11 6 -24 8 -29 5 -12 -7 -121 34 -121 45 0 17
20 21 26 6 4 -11 19 -16 49 -16 53 0 75 8 75 26 0 8 5 14 10 14 16 0 69 63 70
82 0 21 -28 50 -41 42 -6 -3 -21 2 -35 11 -14 9 -42 17 -63 19 -20 1 -43 6
-50 10 -7 5 -22 0 -35 -13 -12 -12 -28 -21 -34 -21 -16 0 -15 23 0 38 10 10
-4 12 -72 6 -47 -4 -89 -10 -94 -15 -16 -14 3 -42 25 -36 16 4 19 2 15 -10 -4
-9 -2 -21 3 -27 16 -19 -2 -35 -49 -42 -43 -6 -44 -5 -25 10 18 14 18 17 4 29
-9 6 -22 26 -30 42 -12 24 -21 31 -53 33 -21 2 -45 -3 -54 -10 -19 -14 -59
-38 -66 -38 -2 0 -2 8 1 18 3 13 -5 21 -29 30 -32 11 -82 7 -74 -7 2 -3 -7 -6
-20 -6 -16 0 -22 5 -19 13 7 20 -24 26 -43 9 -9 -8 -26 -17 -36 -18 -32 -6
-29 -26 5 -33 19 -4 38 -1 48 6 10 8 9 4 -3 -10 -20 -23 -94 -34 -81 -12 11
17 -15 40 -45 40 -41 0 -60 -10 -60 -30 0 -15 -11 -18 -73 -22 -53 -2 -79 -8
-91 -21 -22 -22 -25 -22 -97 9 -34 14 -67 23 -74 20 -7 -2 -16 2 -19 11 -5 12
-14 14 -39 8 -67 -14 -211 -14 -241 0 -18 9 -34 11 -45 6 -9 -5 -35 -12 -58
-16 -36 -6 -43 -4 -43 9 0 9 -7 16 -15 16 -28 0 -15 27 15 34 17 3 30 10 30
16 0 14 -47 43 -60 35 -5 -3 -10 -1 -10 4 0 12 -56 13 -105 2z m-2712 -338
c-7 -2 -19 -2 -25 0 -7 3 -2 5 12 5 14 0 19 -2 13 -5z"/>
<path d="M3237 8971 c-17 -6 -17 -8 -3 -20 17 -14 36 -7 36 15 0 15 -6 16 -33
5z"/>
<path d="M3915 8970 c-7 -12 2 -30 16 -30 12 0 12 27 0 35 -5 3 -12 1 -16 -5z"/>
<path d="M3275 8940 c-6 -10 33 -60 47 -60 4 0 8 7 8 15 0 8 -6 15 -14 15 -9
0 -12 7 -9 20 6 21 -20 29 -32 10z"/>
<path d="M4080 8930 c0 -5 4 -10 9 -10 6 0 13 5 16 10 3 6 -1 10 -9 10 -9 0
-16 -4 -16 -10z"/>
<path d="M3452 8908 c6 -18 28 -21 28 -4 0 9 -7 16 -16 16 -9 0 -14 -5 -12
-12z"/>
<path d="M3182 8890 c-7 -11 -18 -20 -25 -20 -8 0 -24 -11 -37 -25 -22 -23
-22 -25 -6 -50 17 -25 59 -35 71 -15 9 15 44 12 61 -5 17 -17 51 -19 72 -6 22
14 21 79 -2 99 -14 12 -20 14 -23 5 -3 -9 -11 -8 -29 4 -24 15 -25 15 -31 -5
-3 -12 -10 -19 -15 -16 -5 3 -7 17 -4 30 8 30 -14 33 -32 4z"/>
<path d="M2606 8829 c-26 -21 -34 -53 -16 -64 6 -3 10 -2 10 4 0 5 11 23 25
39 31 36 18 50 -19 21z"/>
<path d="M890 8819 c0 -5 5 -7 10 -4 6 3 10 8 10 11 0 2 -4 4 -10 4 -5 0 -10
-5 -10 -11z"/>
<path d="M1035 8813 c-49 -12 -53 -54 -6 -72 l26 -10 -30 0 c-49 2 -53 0 -60
-21 -10 -33 9 -48 52 -41 26 4 41 13 48 29 10 23 35 31 35 11 0 -8 5 -8 15 1
32 27 -1 59 -39 38 -12 -7 -16 -5 -16 6 0 8 8 19 17 25 14 8 15 12 4 25 -7 9
-16 15 -20 15 -3 -1 -15 -4 -26 -6z"/>
<path d="M2630 8795 c-16 -19 -5 -47 17 -43 23 4 31 58 10 58 -8 0 -20 -7 -27
-15z"/>
<path d="M960 8760 c0 -5 5 -10 10 -10 6 0 10 5 10 10 0 6 -4 10 -10 10 -5 0
-10 -4 -10 -10z"/>
<path d="M380 8750 c0 -6 7 -10 15 -10 8 0 15 2 15 4 0 2 -7 6 -15 10 -8 3
-15 1 -15 -4z"/>
<path d="M2740 8740 c-8 -5 -10 -10 -5 -10 6 0 17 5 25 10 8 5 11 10 5 10 -5
0 -17 -5 -25 -10z"/>
<path d="M5850 8725 c0 -17 5 -25 13 -22 6 2 12 12 12 22 0 10 -6 20 -12 23
-8 2 -13 -6 -13 -23z"/>
<path d="M682 8728 c6 -18 28 -21 28 -4 0 9 -7 16 -16 16 -9 0 -14 -5 -12 -12z"/>
<path d="M5967 8714 c-11 -11 -8 -44 3 -44 15 0 24 30 13 41 -5 5 -12 6 -16 3z"/>
<path d="M5812 8688 c2 -15 11 -24 27 -26 23 -4 23 -4 5 22 -24 32 -36 33 -32
4z"/>
<path d="M10755 8700 c-42 -5 -37 -18 9 -22 14 -1 26 -8 26 -15 0 -7 5 -13 10
-13 12 0 14 47 3 52 -5 2 -26 1 -48 -2z"/>
<path d="M10910 8696 c0 -16 28 -42 36 -33 3 3 -4 15 -15 26 -14 14 -21 17
-21 7z"/>
<path d="M11480 8700 c0 -5 5 -10 11 -10 5 0 7 5 4 10 -3 6 -8 10 -11 10 -2 0
-4 -4 -4 -10z"/>
<path d="M1620 8690 c0 -5 5 -10 10 -10 6 0 10 5 10 10 0 6 -4 10 -10 10 -5 0
-10 -4 -10 -10z"/>
<path d="M2672 8684 c4 -21 22 -23 26 -1 2 10 -3 17 -13 17 -10 0 -15 -6 -13
-16z"/>
<path d="M12185 8687 c-3 -9 -7 -24 -10 -32 -2 -9 -11 -12 -20 -8 -12 4 -13 8
-5 13 8 5 8 10 2 14 -15 9 -23 -21 -8 -33 30 -25 85 24 57 52 -7 7 -12 5 -16
-6z"/>
<path d="M1073 8677 c-4 -7 -20 -20 -36 -30 -22 -15 -26 -21 -17 -37 14 -26
12 -40 -5 -40 -12 0 -14 -7 -9 -27 9 -39 23 -53 50 -53 27 0 45 43 25 63 -8 8
-11 6 -11 -8 0 -15 -2 -17 -12 -6 -11 10 -9 15 6 26 17 13 18 16 3 38 -18 27
-5 66 17 48 16 -14 40 3 33 23 -8 19 -33 21 -44 3z"/>
<path d="M1127 8654 c-18 -24 -13 -29 17 -18 9 3 16 12 16 19 0 24 -15 24 -33
-1z"/>
<path d="M1390 8659 c-9 -16 -8 -26 5 -45 19 -29 18 -29 62 0 20 14 42 22 52
18 14 -5 14 -4 2 12 -9 10 -23 15 -34 12 -13 -3 -17 0 -13 10 9 24 -61 18 -74
-7z"/>
<path d="M11350 8656 c0 -9 7 -16 16 -16 17 0 14 22 -4 28 -7 2 -12 -3 -12
-12z"/>
<path d="M9416 8646 c7 -18 84 -24 84 -6 0 6 -10 10 -22 10 -13 0 -33 3 -46 6
-18 5 -21 3 -16 -10z"/>
<path d="M10352 8649 c-26 -8 -32 -14 -27 -27 4 -9 10 -25 12 -35 5 -15 11
-17 32 -11 14 4 34 7 44 8 21 0 21 9 2 46 -17 33 -16 32 -63 19z"/>
<path d="M11277 8653 c-4 -3 -7 -11 -7 -17 0 -6 5 -5 12 2 6 6 9 14 7 17 -3 3
-9 2 -12 -2z"/>
<path d="M12235 8651 c-3 -5 -1 -12 4 -15 5 -3 11 1 15 9 6 16 -9 21 -19 6z"/>
<path d="M1977 8643 c-23 -22 12 -117 41 -111 30 6 28 71 -4 102 -17 17 -27
20 -37 9z"/>
<path d="M2152 8639 c2 -7 10 -15 17 -17 8 -3 12 1 9 9 -2 7 -10 15 -17 17 -8
3 -12 -1 -9 -9z"/>
<path d="M8725 8641 c-6 -11 9 -23 19 -14 9 9 7 23 -3 23 -6 0 -12 -4 -16 -9z"/>
<path d="M8765 8630 c-17 -18 -17 -20 -1 -20 9 0 19 7 23 15 9 25 -2 27 -22 5z"/>
<path d="M10436 8632 c-3 -6 -1 -14 5 -17 15 -10 25 3 12 16 -7 7 -13 7 -17 1z"/>
<path d="M11326 8632 c-3 -6 -1 -14 5 -17 15 -10 25 3 12 16 -7 7 -13 7 -17 1z"/>
<path d="M357 8609 c-6 -22 24 -42 31 -21 2 7 11 12 19 12 13 0 13 3 3 15 -18
22 -47 18 -53 -6z"/>
<path d="M9751 8616 c-16 -19 -11 -29 8 -17 7 5 12 14 9 21 -3 9 -8 7 -17 -4z"/>
<path d="M1579 8599 c-13 -13 -24 -18 -26 -12 -2 6 -13 9 -23 6 -29 -8 -26
-51 4 -64 55 -25 123 38 84 77 -14 15 -18 14 -39 -7z"/>
<path d="M6751 8604 c-33 -23 -26 -49 17 -66 37 -15 39 -14 75 17 45 39 49 59
9 50 -16 -3 -40 -1 -54 4 -19 7 -31 6 -47 -5z"/>
<path d="M8680 8612 c0 -5 9 -17 19 -26 14 -13 21 -14 27 -5 4 7 -1 18 -11 26
-21 15 -35 17 -35 5z"/>
<path d="M10283 8593 c9 -9 19 -14 23 -11 10 10 -6 28 -24 28 -15 0 -15 -1 1
-17z"/>
<path d="M321 8584 c0 -11 3 -14 6 -6 3 7 2 16 -1 19 -3 4 -6 -2 -5 -13z"/>
<path d="M9775 8589 c-8 -21 12 -72 28 -66 20 6 19 32 -2 58 -16 20 -21 21
-26 8z"/>
<path d="M10226 8575 c-14 -14 -26 -21 -26 -15 0 6 -4 8 -10 5 -5 -3 -10 -16
-10 -27 0 -11 -7 -26 -15 -32 -8 -6 -11 -16 -7 -23 6 -9 21 -1 52 27 24 22 50
40 57 40 17 0 17 25 -1 39 -11 9 -20 7 -40 -14z"/>
<path d="M12293 8593 c-15 -5 -18 -33 -4 -33 13 0 33 28 24 33 -4 2 -14 2 -20
0z"/>
<path d="M7180 8560 c0 -5 5 -10 10 -10 6 0 10 5 10 10 0 6 -4 10 -10 10 -5 0
-10 -4 -10 -10z"/>
<path d="M10373 8563 c-18 -7 -17 -63 1 -63 8 0 18 5 22 11 3 6 19 9 34 5 37
-7 47 17 15 38 -24 16 -49 19 -72 9z"/>
<path d="M7207 8543 c-4 -3 -7 -17 -7 -30 0 -33 24 -24 28 10 3 26 -7 35 -21
20z"/>
<path d="M7265 8540 c-3 -5 3 -10 14 -10 11 0 23 5 26 10 3 6 -3 10 -14 10
-11 0 -23 -4 -26 -10z"/>
<path d="M654 8528 c-10 -16 21 -40 48 -36 25 3 25 3 -8 25 -21 14 -36 18 -40
11z"/>
<path d="M10250 8532 c0 -14 11 -21 26 -15 21 8 17 23 -6 23 -11 0 -20 -4 -20
-8z"/>
<path d="M10734 8529 c-10 -17 13 -36 27 -22 12 12 4 33 -11 33 -5 0 -12 -5
-16 -11z"/>
<path d="M8752 8516 c1 -10 8 -17 13 -17 15 1 12 24 -3 29 -9 3 -13 -2 -10
-12z"/>
<path d="M10200 8475 c-10 -12 -10 -15 4 -15 9 0 16 7 16 15 0 8 -2 15 -4 15
-2 0 -9 -7 -16 -15z"/>
<path d="M10467 8472 c-22 -24 -22 -42 1 -43 30 -1 -18 -17 -55 -18 -18 -1
-44 -6 -58 -13 -40 -18 -47 -78 -8 -78 11 0 14 6 9 24 -5 22 17 56 29 44 3 -3
-1 -10 -8 -17 -16 -13 -11 -60 7 -62 48 -6 57 -5 62 2 3 5 16 9 30 9 14 0 24
5 23 13 -3 22 1 40 7 34 12 -12 45 14 42 32 -2 10 3 25 11 35 12 14 11 19 -4
36 -23 25 -67 26 -88 2z"/>
<path d="M10737 8483 c-4 -3 -7 -12 -7 -20 0 -11 5 -11 20 -3 11 6 20 15 20
20 0 11 -23 13 -33 3z"/>
<path d="M7560 8465 c0 -8 5 -15 10 -15 6 0 10 7 10 15 0 8 -4 15 -10 15 -5 0
-10 -7 -10 -15z"/>
<path d="M370 8432 c0 -18 12 -42 21 -42 14 0 10 26 -6 40 -9 8 -15 8 -15 2z"/>
<path d="M7747 8403 c-4 -3 -7 -10 -7 -14 0 -11 29 -19 35 -10 6 11 -20 33
-28 24z"/>
<path d="M8640 8364 c0 -8 5 -12 10 -9 6 3 10 10 10 16 0 5 -4 9 -10 9 -5 0
-10 -7 -10 -16z"/>
<path d="M370 8345 c0 -29 12 -32 31 -9 10 13 10 17 -2 25 -23 14 -29 11 -29
-16z"/>
<path d="M8276 8361 c-4 -5 -2 -12 3 -15 5 -4 12 -2 15 3 4 5 2 12 -3 15 -5 4
-12 2 -15 -3z"/>
<path d="M10585 8360 c-3 -5 -1 -10 4 -10 6 0 11 5 11 10 0 6 -2 10 -4 10 -3
0 -8 -4 -11 -10z"/>
<path d="M416 8331 c-10 -16 3 -51 19 -51 24 0 28 21 7 42 -13 13 -22 16 -26
9z"/>
<path d="M8280 8300 c0 -5 7 -10 15 -10 8 0 15 5 15 10 0 6 -7 10 -15 10 -8 0
-15 -4 -15 -10z"/>
<path d="M452 8264 c-18 -17 -20 -23 -8 -27 17 -7 39 16 34 35 -2 9 -10 7 -26
-8z"/>
<path d="M495 8271 c-9 -29 5 -51 32 -51 18 0 24 4 19 15 -3 8 -1 15 4 15 20
0 9 28 -12 34 -34 9 -36 8 -43 -13z"/>
<path d="M8295 8260 c3 -5 13 -10 21 -10 8 0 14 5 14 10 0 6 -9 10 -21 10 -11
0 -17 -4 -14 -10z"/>
<path d="M12455 8047 c-4 -10 -5 -21 -1 -24 10 -10 18 4 13 24 -4 17 -4 17
-12 0z"/>
<path d="M12420 8039 c0 -5 5 -7 10 -4 6 3 10 8 10 11 0 2 -4 4 -10 4 -5 0
-10 -5 -10 -11z"/>
<path d="M12430 6960 c0 -5 5 -10 11 -10 5 0 7 5 4 10 -3 6 -8 10 -11 10 -2 0
-4 -4 -4 -10z"/>
<path d="M12405 6909 c-13 -39 46 -55 66 -18 9 17 8 23 -2 30 -26 16 -57 10
-64 -12z"/>
<path d="M12366 6603 c-11 -11 -6 -23 9 -23 8 0 15 4 15 9 0 13 -16 22 -24 14z"/>
<path d="M329 6573 c-6 -17 -7 -29 -1 -31 6 -2 8 -12 5 -22 -4 -14 0 -20 11
-20 9 0 17 6 18 13 0 6 2 17 2 22 1 6 5 16 10 23 8 13 -9 42 -25 42 -5 0 -14
-12 -20 -27z"/>
<path d="M12464 6386 c-9 -23 12 -51 40 -54 27 -2 30 6 20 46 -7 25 -51 31
-60 8z"/>
<path d="M12414 6365 c-8 -20 36 -91 46 -75 7 12 -1 58 -15 80 -9 15 -25 12
-31 -5z"/>
<path d="M426 6258 c-6 -25 16 -54 33 -44 17 11 13 53 -5 60 -22 8 -21 9 -28
-16z"/>
<path d="M371 6254 c0 -11 3 -14 6 -6 3 7 2 16 -1 19 -3 4 -6 -2 -5 -13z"/>
<path d="M493 6225 c-3 -9 -3 -18 0 -22 10 -10 37 6 37 22 0 20 -29 20 -37 0z"/>
<path d="M440 5869 c0 -5 5 -7 10 -4 6 3 10 8 10 11 0 2 -4 4 -10 4 -5 0 -10
-5 -10 -11z"/>
<path d="M12337 5523 c-14 -14 -7 -62 11 -72 19 -10 45 -78 36 -92 -3 -5 4
-25 16 -46 17 -32 20 -34 18 -13 -1 14 4 41 10 61 7 20 14 66 16 103 3 64 3
66 -15 50 -17 -15 -19 -15 -34 0 -17 16 -46 21 -58 9z m38 -13 c8 -13 -5 -13
-25 0 -13 8 -13 10 2 10 9 0 20 -4 23 -10z"/>
<path d="M625 5417 c-4 -10 -5 -21 -1 -24 10 -10 18 4 13 24 -4 17 -4 17 -12
0z"/>
<path d="M490 5351 c0 -30 21 -71 37 -71 10 0 13 11 11 43 -2 35 -7 43 -25 45
-17 3 -23 -2 -23 -17z"/>
<path d="M12283 5334 c-9 -25 11 -38 44 -27 42 14 41 37 -2 41 -25 1 -37 -3
-42 -14z"/>
<path d="M434 5325 c-8 -21 4 -35 32 -35 27 0 28 3 14 31 -13 22 -38 25 -46 4z"/>
<path d="M12343 5297 c-37 -11 -43 -32 -13 -42 24 -7 60 10 60 30 0 20 -11 23
-47 12z"/>
<path d="M410 5238 c0 -14 31 -47 57 -62 14 -7 73 19 73 33 0 17 -27 30 -78
37 -42 5 -52 4 -52 -8z"/>
<path d="M12395 5191 c-6 -11 9 -23 19 -14 9 9 7 23 -3 23 -6 0 -12 -4 -16 -9z"/>
<path d="M12230 4805 c0 -10 5 -13 12 -9 7 5 9 1 6 -12 -6 -22 36 -61 47 -44
7 12 -15 46 -44 66 -19 14 -21 13 -21 -1z"/>
<path d="M12307 4674 c-12 -13 -8 -20 18 -32 33 -15 32 -16 31 11 -1 22 -34
36 -49 21z"/>
<path d="M12295 4504 c-18 -19 -19 -26 -3 -42 23 -23 48 -14 48 17 0 34 -23
47 -45 25z"/>
<path d="M12212 4478 c6 -18 28 -21 28 -4 0 9 -7 16 -16 16 -9 0 -14 -5 -12
-12z"/>
<path d="M327 4043 c-11 -11 -8 -51 5 -59 6 -4 16 0 22 8 6 8 17 17 25 19 11
4 10 8 -3 22 -18 18 -38 22 -49 10z"/>
<path d="M12295 3940 c-11 -12 -15 -26 -10 -37 5 -15 9 -12 21 16 17 41 14 48
-11 21z"/>
<path d="M274 3286 c-8 -22 3 -33 18 -18 9 9 9 15 0 24 -9 9 -13 7 -18 -6z"/>
<path d="M366 3172 c-14 -14 -4 -43 19 -54 32 -14 41 -5 29 29 -8 24 -35 38
-48 25z"/>
<path d="M12201 3134 c0 -11 3 -14 6 -6 3 7 2 16 -1 19 -3 4 -6 -2 -5 -13z"/>
<path d="M344 3025 c-4 -9 -2 -21 4 -27 15 -15 44 -1 40 19 -4 23 -36 29 -44
8z"/>
<path d="M288 3009 c-26 -15 -23 -55 5 -63 37 -10 67 -7 67 7 -1 11 -44 67
-52 67 -2 0 -11 -5 -20 -11z"/>
<path d="M290 2909 c0 -5 -4 -8 -10 -4 -5 3 -14 -11 -20 -32 -5 -21 -14 -44
-19 -52 -6 -9 -3 -27 6 -49 9 -22 13 -52 10 -74 -6 -46 0 -49 14 -8 6 17 15
30 20 30 11 0 11 -3 -1 -34 -5 -14 -7 -33 -4 -41 8 -20 53 -19 60 0 5 11 10
13 19 5 15 -12 26 -3 18 16 -3 9 1 14 12 14 13 0 16 7 12 33 -2 18 -10 43 -16
55 -12 22 -11 66 2 78 15 15 6 26 -17 22 -25 -5 -41 13 -37 40 1 7 -9 12 -24
12 -14 0 -25 -5 -25 -11z"/>
<path d="M12088 2894 c-26 -14 -39 -44 -19 -44 5 0 16 -3 24 -6 11 -4 17 4 22
26 9 40 6 42 -27 24z"/>
<path d="M396 2841 c-3 -5 1 -11 9 -15 9 -3 15 0 15 9 0 16 -16 20 -24 6z"/>
<path d="M12067 2773 c-2 -5 -5 -30 -6 -56 -1 -27 -6 -58 -12 -69 -8 -15 -7
-28 6 -54 18 -38 41 -47 32 -12 -7 24 17 58 39 58 7 0 16 -9 19 -20 7 -21 22
-25 44 -11 20 13 -4 51 -33 51 -13 0 -37 3 -54 6 -24 5 -29 10 -24 28 2 11 11
29 20 38 8 10 12 24 9 33 -7 16 -33 21 -40 8z"/>
<path d="M12135 2751 c-7 -22 6 -40 28 -41 12 0 8 25 -7 45 -13 18 -14 18 -21
-4z"/>
<path d="M11962 2728 c-17 -17 -15 -48 3 -48 8 0 15 -4 15 -9 0 -13 27 -21 45
-15 16 6 20 41 7 60 -11 17 -57 25 -70 12z"/>
<path d="M12005 2630 c4 -6 11 -8 16 -5 14 9 11 15 -7 15 -8 0 -12 -5 -9 -10z"/>
<path d="M11970 2602 c0 -11 7 -23 16 -26 11 -4 15 0 12 16 -4 28 -28 36 -28
10z"/>
<path d="M12106 2542 c-3 -6 -1 -14 5 -17 15 -10 25 3 12 16 -7 7 -13 7 -17 1z"/>
<path d="M12074 2484 c3 -9 6 -18 6 -20 0 -2 7 -4 15 -4 8 0 15 9 15 20 0 14
-7 20 -21 20 -15 0 -19 -4 -15 -16z"/>
<path d="M12297 2293 c-13 -12 -7 -23 13 -23 11 0 20 7 20 15 0 15 -21 21 -33
8z"/>
<path d="M12282 2238 c5 -15 48 -24 48 -10 0 10 -23 22 -42 22 -5 0 -8 -6 -6
-12z"/>
<path d="M12252 2203 c2 -11 14 -19 31 -21 31 -4 35 5 10 24 -25 19 -45 17
-41 -3z"/>
<path d="M12150 2060 c0 -16 5 -32 10 -35 6 -3 10 -3 10 2 0 4 3 18 6 29 4 14
0 23 -10 27 -12 5 -16 0 -16 -23z"/>
<path d="M12315 2080 c-3 -5 -1 -10 4 -10 6 0 11 5 11 10 0 6 -2 10 -4 10 -3
0 -8 -4 -11 -10z"/>
<path d="M12270 1775 c-10 -12 -9 -20 4 -40 10 -15 14 -34 10 -49 -4 -19 0
-28 21 -42 23 -15 28 -15 36 -3 14 23 10 66 -7 73 -8 3 -13 10 -10 15 9 13
-15 61 -29 61 -7 0 -18 -7 -25 -15z"/>
<path d="M12330 1770 c0 -24 15 -27 24 -4 9 22 8 24 -9 24 -8 0 -15 -9 -15
-20z"/>
<path d="M12300 1601 c0 -20 35 -51 57 -51 7 0 13 7 13 15 0 8 -6 15 -14 15
-8 0 -18 9 -21 20 -8 26 -35 26 -35 1z"/>
<path d="M12225 1420 c-3 -5 1 -13 9 -16 9 -3 16 -15 16 -25 0 -19 16 -24 44
-13 24 9 19 42 -6 49 -13 4 -30 9 -40 11 -9 3 -19 0 -23 -6z"/>
<path d="M12417 790 c-3 -10 1 -24 9 -31 11 -9 14 -6 14 20 0 34 -15 42 -23
11z"/>
<path d="M7064 755 c4 -13 2 -13 -14 -5 -24 13 -63 13 -55 0 4 -6 11 -7 17 -4
5 4 3 -4 -6 -17 -12 -20 -13 -29 -3 -49 15 -30 54 -37 95 -16 27 14 30 13 49
-6 20 -19 20 -22 5 -48 -15 -27 -15 -30 2 -49 11 -12 26 -19 36 -16 9 3 25 -3
35 -15 11 -12 31 -20 51 -20 18 0 36 -5 39 -10 5 -8 11 -7 21 1 11 9 14 8 14
-5 0 -27 39 -19 50 10 13 33 13 34 -5 34 -8 0 -15 5 -15 11 0 6 -9 9 -19 6
-16 -4 -21 2 -28 37 -4 22 -7 49 -5 59 1 10 -3 15 -8 12 -6 -3 -10 -13 -10
-22 0 -11 -6 -13 -22 -8 -13 4 -39 8 -58 9 -31 1 -35 4 -38 31 -5 41 -19 55
-54 55 -16 0 -27 4 -23 9 6 10 -25 31 -45 31 -7 0 -10 -7 -6 -15z"/>
<path d="M6940 740 c-12 -8 -12 -10 3 -16 22 -8 50 3 42 16 -8 12 -25 13 -45
0z"/>
<path d="M6922 701 c7 -11 21 -25 33 -30 16 -9 12 -10 -25 -8 -55 4 -110 -16
-110 -41 0 -24 53 -45 114 -46 28 -1 56 -4 62 -8 6 -4 19 1 29 12 18 20 45 27
45 12 0 -4 -12 -15 -26 -23 l-27 -16 37 -7 c26 -5 41 -3 51 8 9 9 11 17 6 21
-6 3 -8 12 -4 20 7 21 -15 45 -41 45 -11 0 -34 -7 -50 -15 -47 -25 -76 -14
-41 15 24 20 18 36 -21 59 -43 26 -47 26 -32 2z"/>
<path d="M8860 671 c0 -39 25 -60 47 -38 15 14 15 18 -1 41 -23 35 -46 34 -46
-3z"/>
<path d="M7400 660 c0 -11 5 -20 10 -20 6 0 19 -9 30 -20 12 -12 25 -18 30
-15 20 12 9 30 -30 53 -39 22 -40 22 -40 2z"/>
<path d="M7344 655 c-9 -21 14 -45 42 -45 24 0 24 1 9 30 -17 32 -42 40 -51
15z"/>
<path d="M8794 621 c3 -5 -1 -11 -9 -15 -8 -3 -15 -14 -15 -25 0 -14 -5 -19
-15 -15 -11 5 -15 -1 -15 -20 0 -31 25 -44 52 -27 13 8 24 8 38 1 14 -7 20 -7
20 0 0 5 8 10 18 10 22 0 47 39 34 52 -6 6 -12 6 -16 -1 -11 -18 -22 -13 -35
15 -7 17 -17 24 -26 20 -8 -3 -15 -1 -15 4 0 6 -5 10 -11 10 -5 0 -8 -4 -5 -9z"/>
<path d="M6105 610 c-3 -5 -1 -10 4 -10 6 0 11 5 11 10 0 6 -2 10 -4 10 -3 0
-8 -4 -11 -10z"/>
<path d="M770 600 c0 -5 6 -10 14 -10 8 0 18 5 21 10 3 6 -3 10 -14 10 -12 0
-21 -4 -21 -10z"/>
<path d="M616 571 c-5 -8 -2 -20 8 -29 17 -17 19 -9 7 22 -6 15 -10 16 -15 7z"/>
<path d="M8998 562 c-11 -2 -18 -13 -18 -27 0 -28 20 -45 21 -18 0 15 2 14 11
-4 13 -26 48 -31 48 -7 0 38 -28 64 -62 56z"/>
<path d="M1420 535 c0 -8 5 -15 10 -15 6 0 10 7 10 15 0 8 -4 15 -10 15 -5 0
-10 -7 -10 -15z"/>
<path d="M5570 521 c0 -5 6 -14 14 -20 16 -13 32 2 21 19 -8 12 -35 13 -35 1z"/>
<path d="M9327 523 c-9 -8 -9 -46 -1 -67 9 -24 61 -21 74 4 9 17 6 24 -17 45
-29 25 -45 30 -56 18z"/>
<path d="M12280 506 c0 -15 -10 -32 -27 -44 l-26 -19 22 -32 c25 -35 41 -38
76 -15 13 9 30 14 37 11 8 -4 6 -6 -4 -6 -10 -1 -18 -5 -18 -10 0 -15 73 6 87
25 23 31 16 43 -20 37 -35 -5 -67 15 -67 42 0 14 -29 35 -49 35 -6 0 -11 -11
-11 -24z"/>
<path d="M1526 505 c-8 -22 28 -39 44 -20 6 8 9 19 5 25 -9 15 -42 12 -49 -5z"/>
<path d="M7421 506 c-10 -12 -6 -15 21 -21 18 -4 42 -9 53 -12 15 -3 13 1 -10
21 -35 29 -48 32 -64 12z"/>
<path d="M9395 510 c3 -5 8 -10 11 -10 2 0 4 5 4 10 0 6 -5 10 -11 10 -5 0 -7
-4 -4 -10z"/>
<path d="M1487 485 c-9 -22 -10 -18 18 -49 29 -31 89 -38 83 -9 -2 9 -16 20
-33 25 -16 4 -37 17 -46 29 -14 19 -17 20 -22 4z"/>
<path d="M2010 489 c-12 -8 -12 -12 -2 -16 9 -4 3 -14 -20 -34 -38 -32 -28
-36 51 -17 60 14 68 38 21 63 -34 18 -31 17 -50 4z"/>
<path d="M2137 494 c-3 -3 -3 -12 0 -20 3 -9 0 -14 -8 -12 -7 2 -15 -5 -17
-14 -3 -14 3 -18 28 -18 22 0 29 3 23 13 -4 6 -6 19 -5 29 3 17 -11 32 -21 22z"/>
<path d="M9688 483 c-40 -46 -43 -88 -4 -44 10 11 31 23 48 26 16 4 27 12 25
18 -6 20 -52 19 -69 0z"/>
<path d="M5716 483 c-8 -9 14 -33 30 -33 8 0 14 4 14 10 0 12 -35 31 -44 23z"/>
<path d="M12375 480 c3 -5 10 -10 16 -10 5 0 9 5 9 10 0 6 -7 10 -16 10 -8 0
-12 -4 -9 -10z"/>
<path d="M1650 420 c0 -5 5 -10 10 -10 6 0 10 5 10 10 0 6 -4 10 -10 10 -5 0
-10 -4 -10 -10z"/>
<path d="M11095 370 c-3 -5 -1 -10 4 -10 6 0 11 5 11 10 0 6 -2 10 -4 10 -3 0
-8 -4 -11 -10z"/>
<path d="M11142 364 c-18 -12 -20 -19 -12 -35 6 -10 20 -19 30 -19 16 0 20 7
20 35 0 39 -6 42 -38 19z"/>
<path d="M11190 334 c0 -14 4 -23 10 -19 6 3 10 15 10 26 0 10 -4 19 -10 19
-5 0 -10 -12 -10 -26z"/>
<path d="M11120 290 c20 -13 53 -13 45 0 -3 6 -18 10 -33 10 -21 0 -24 -2 -12
-10z"/>
</g>
</svg>
